<svg width="1229" height="2102" viewBox="0 0 1229 2102" fill="none" xmlns="http://www.w3.org/2000/svg">
<path d="M614.584 1848.01C719.46 1848.01 814.303 1862.31 882.841 1885.37C917.122 1896.9 944.685 1910.58 963.626 1925.64C982.593 1940.73 992.584 1956.92 992.584 1973.51C992.584 1990.1 982.593 2006.29 963.626 2021.38C944.685 2036.44 917.122 2050.12 882.841 2061.65C814.303 2084.71 719.46 2099.01 614.584 2099.01C509.708 2099.01 414.865 2084.71 346.327 2061.65C312.046 2050.12 284.483 2036.44 265.542 2021.38C246.575 2006.29 236.584 1990.1 236.584 1973.51C236.584 1956.92 246.575 1940.73 265.542 1925.64C284.483 1910.58 312.046 1896.9 346.327 1885.37C414.865 1862.31 509.708 1848.01 614.584 1848.01Z" fill="#333333" stroke="black" stroke-width="5"/>
<path d="M236.084 1845.55C236.084 1842.79 238.323 1840.55 241.084 1840.55H361.084C363.845 1840.55 366.084 1842.79 366.084 1845.55V1963.68H236.084V1845.55Z" fill="#333333"/>
<path d="M862.084 1845.55C862.084 1842.79 864.323 1840.55 867.084 1840.55H987.084C989.845 1840.55 992.084 1842.79 992.084 1845.55V1963.68H862.084V1845.55Z" fill="#333333"/>
<path d="M614.084 1749.01C718.854 1749.01 813.612 1761.15 882.098 1780.72C916.358 1790.51 943.901 1802.12 962.822 1814.9C981.83 1827.74 991.584 1841.37 991.584 1855.1C991.584 1868.82 981.83 1882.45 962.822 1895.29C943.901 1908.07 916.358 1919.68 882.098 1929.47C813.612 1949.04 718.854 1961.18 614.084 1961.18C509.314 1961.18 414.556 1949.04 346.07 1929.47C311.81 1919.68 284.267 1908.07 265.346 1895.29C246.338 1882.45 236.584 1868.82 236.584 1855.1C236.584 1841.37 246.338 1827.74 265.346 1814.9C284.267 1802.12 311.81 1790.51 346.07 1780.72C414.556 1761.15 509.314 1749.01 614.084 1749.01Z" fill="url(#paint0_linear_587_49)" stroke="black" stroke-width="5"/>
<path d="M991.584 1856.07L992.215 1966.59" stroke="black" stroke-width="4.5"/>
<path d="M237.084 1850.25L236.584 1964.58" stroke="black" stroke-width="5"/>
<path d="M1225.08 983.51L1023.74 39.5098L611.099 2.50977L202.939 39.5098L3.08398 983.51H606.13H1225.08Z" fill="url(#paint1_linear_587_49)" stroke="black" stroke-width="5"/>
<path d="M614.084 914.01C783.569 914.01 936.966 922.122 1047.95 935.228C1103.46 941.782 1148.27 949.575 1179.16 958.197C1194.62 962.514 1206.45 966.999 1214.36 971.563C1218.32 973.846 1221.17 976.082 1223.02 978.228C1224.85 980.356 1225.58 982.272 1225.58 984.01C1225.58 985.747 1224.85 987.664 1223.02 989.792C1221.17 991.937 1218.32 994.174 1214.36 996.456C1206.45 1001.02 1194.62 1005.51 1179.16 1009.82C1148.27 1018.44 1103.46 1026.24 1047.95 1032.79C936.966 1045.9 783.569 1054.01 614.084 1054.01C444.599 1054.01 291.202 1045.9 180.214 1032.79C124.703 1026.24 79.8932 1018.44 49.0078 1009.82C33.5458 1005.51 21.7175 1001.02 13.8076 996.456C9.8525 994.174 6.99452 991.937 5.14941 989.792C3.31882 987.664 2.58398 985.747 2.58398 984.01C2.58398 982.272 3.31882 980.356 5.14941 978.228C6.99452 976.082 9.8525 973.846 13.8076 971.563C21.7175 966.999 33.5458 962.514 49.0078 958.197C79.8932 949.575 124.703 941.782 180.214 935.228C291.202 922.122 444.599 914.01 614.084 914.01Z" fill="#F6F2D2" stroke="black" stroke-width="5"/>
<path d="M542.084 914.01H686.084C687.465 914.01 688.584 915.129 688.584 916.51V1837.82C688.584 1839.2 687.465 1840.32 686.084 1840.32H542.084C540.703 1840.32 539.584 1839.2 539.584 1837.82V916.51C539.584 915.129 540.703 914.01 542.084 914.01Z" fill="url(#paint2_linear_587_49)" stroke="black" stroke-width="5"/>
<path d="M806.084 436.51C825.057 470.468 876.418 518.009 930.084 436.51" stroke="#212121" stroke-width="10" stroke-linecap="round"/>
<path d="M807.084 435.51C825.751 457.394 876.284 488.032 929.084 435.51" stroke="#212121" stroke-width="10" stroke-linecap="round"/>
<path d="M807.084 437.51C825.751 465.431 876.284 504.52 929.084 437.51" stroke="#212121" stroke-width="10" stroke-linecap="round"/>
<path d="M296.084 434.51C315.057 468.468 366.418 516.009 420.084 434.51" stroke="#212121" stroke-width="10" stroke-linecap="round"/>
<path d="M297.084 433.51C315.751 455.394 366.284 486.032 419.084 433.51" stroke="#212121" stroke-width="10" stroke-linecap="round"/>
<path d="M297.084 435.51C315.751 463.431 366.284 502.52 419.084 435.51" stroke="#212121" stroke-width="10" stroke-linecap="round"/>
<path d="M470.084 717.51C514.456 670.723 634.576 605.222 760.084 717.51" stroke="#212121" stroke-width="22" stroke-linecap="round"/>
<path d="M470.084 717.51C514.456 685.816 634.576 641.444 760.084 717.51" stroke="#212121" stroke-width="22" stroke-linecap="round"/>
<defs>
<linearGradient id="paint0_linear_587_49" x1="614.084" y1="1746.51" x2="614.084" y2="1963.68" gradientUnits="userSpaceOnUse">
<stop stop-color="#BDBDBD"/>
<stop offset="0.5" stop-color="#757575"/>
<stop offset="1" stop-color="#424242"/>
</linearGradient>
<linearGradient id="paint1_linear_587_49" x1="614.084" y1="2.50977" x2="614.084" y2="983.51" gradientUnits="userSpaceOnUse">
<stop stop-color="#FFF59D"/>
<stop offset="0.5" stop-color="#FFEB3B"/>
<stop offset="1" stop-color="#FBC02D"/>
</linearGradient>
<linearGradient id="paint2_linear_587_49" x1="614.084" y1="911.51" x2="614.084" y2="1842.82" gradientUnits="userSpaceOnUse">
<stop stop-color="#E0E0E0"/>
<stop offset="0.5" stop-color="#BDBDBD"/>
<stop offset="1" stop-color="#757575"/>
</linearGradient>
</defs>
</svg>
