<svg width="1706" height="2237" viewBox="0 0 1706 2237" fill="none" xmlns="http://www.w3.org/2000/svg">
<rect width="1706" height="2237" fill="#10161B"/>
<path d="M854.5 1914.5C959.376 1914.5 1054.22 1928.8 1122.76 1951.86C1157.04 1963.39 1184.6 1977.07 1203.54 1992.13C1222.51 2007.22 1232.5 2023.41 1232.5 2040C1232.5 2056.59 1222.51 2072.78 1203.54 2087.87C1184.6 2102.93 1157.04 2116.61 1122.76 2128.14C1054.22 2151.2 959.376 2165.5 854.5 2165.5C749.624 2165.5 654.781 2151.2 586.243 2128.14C551.962 2116.61 524.399 2102.93 505.458 2087.87C486.491 2072.78 476.5 2056.59 476.5 2040C476.5 2023.41 486.491 2007.22 505.458 1992.13C524.399 1977.07 551.962 1963.39 586.243 1951.86C654.781 1928.8 749.624 1914.5 854.5 1914.5Z" fill="#333333" stroke="black" stroke-width="5"/>
<path d="M476 1912.04C476 1909.28 478.239 1907.04 481 1907.04H601C603.761 1907.04 606 1909.28 606 1912.04V2030.17H476V1912.04Z" fill="#333333"/>
<path d="M1102 1912.04C1102 1909.28 1104.24 1907.04 1107 1907.04H1227C1229.76 1907.04 1232 1909.28 1232 1912.04V2030.17H1102V1912.04Z" fill="#333333"/>
<path d="M854 1815.5C958.77 1815.5 1053.53 1827.64 1122.01 1847.21C1156.27 1857 1183.82 1868.61 1202.74 1881.39C1221.75 1894.23 1231.5 1907.86 1231.5 1921.59C1231.5 1935.31 1221.75 1948.94 1202.74 1961.78C1183.82 1974.56 1156.27 1986.17 1122.01 1995.96C1053.53 2015.53 958.77 2027.67 854 2027.67C749.23 2027.67 654.472 2015.53 585.986 1995.96C551.726 1986.17 524.183 1974.56 505.262 1961.78C486.254 1948.94 476.5 1935.31 476.5 1921.59C476.5 1907.86 486.254 1894.23 505.262 1881.39C524.183 1868.61 551.726 1857 585.986 1847.21C654.472 1827.64 749.23 1815.5 854 1815.5Z" fill="url(#paint0_linear_575_25)" stroke="black" stroke-width="5"/>
<path d="M1231.5 1922.56L1232.13 2033.08" stroke="black" stroke-width="4.5"/>
<path d="M477 1916.74L476.5 2031.07" stroke="black" stroke-width="5"/>
<path d="M1465 1050L1263.65 106L851.015 69L442.855 106L243 1050H846.046H1465Z" fill="url(#paint1_linear_575_25)" stroke="black" stroke-width="5"/>
<path d="M854 980.5C1023.49 980.5 1176.88 988.613 1287.87 1001.72C1343.38 1008.27 1388.19 1016.07 1419.08 1024.69C1434.54 1029 1446.37 1033.49 1454.28 1038.05C1458.23 1040.34 1461.09 1042.57 1462.93 1044.72C1464.77 1046.85 1465.5 1048.76 1465.5 1050.5C1465.5 1052.24 1464.77 1054.15 1462.93 1056.28C1461.09 1058.43 1458.23 1060.66 1454.28 1062.95C1446.37 1067.51 1434.54 1072 1419.08 1076.31C1388.19 1084.93 1343.38 1092.73 1287.87 1099.28C1176.88 1112.39 1023.49 1120.5 854 1120.5C684.515 1120.5 531.118 1112.39 420.13 1099.28C364.619 1092.73 319.809 1084.93 288.924 1076.31C273.462 1072 261.634 1067.51 253.724 1062.95C249.769 1060.66 246.911 1058.43 245.065 1056.28C243.235 1054.15 242.5 1052.24 242.5 1050.5C242.5 1048.76 243.235 1046.85 245.065 1044.72C246.911 1042.57 249.769 1040.34 253.724 1038.05C261.634 1033.49 273.462 1029 288.924 1024.69C319.809 1016.07 364.619 1008.27 420.13 1001.72C531.118 988.613 684.515 980.5 854 980.5Z" fill="#F6F2D2" stroke="black" stroke-width="5"/>
<path d="M782 980.5H926C927.381 980.5 928.5 981.619 928.5 983V1904.31C928.5 1905.69 927.381 1906.81 926 1906.81H782C780.619 1906.81 779.5 1905.69 779.5 1904.31V983C779.5 981.619 780.619 980.5 782 980.5Z" fill="url(#paint2_linear_575_25)" stroke="black" stroke-width="5"/>
<path d="M537 548C555.667 514.042 606.2 466.501 659 548" stroke="#212121" stroke-width="10"/>
<path d="M1048 548C1066.67 514.042 1117.2 466.501 1170 548" stroke="#212121" stroke-width="10"/>
<mask id="path-13-inside-1_575_25" fill="white">
<path d="M1025 658C1025 672.445 1020.59 686.749 1012.02 700.095C1003.45 713.441 990.894 725.567 975.062 735.782C959.229 745.996 940.434 754.099 919.748 759.627C899.062 765.155 876.89 768 854.5 768C832.11 768 809.938 765.155 789.252 759.627C768.566 754.099 749.771 745.996 733.938 735.782C718.106 725.567 705.547 713.441 696.979 700.095C688.41 686.749 684 672.445 684 658L854.5 658H1025Z"/>
</mask>
<path d="M1025 658C1025 672.445 1020.59 686.749 1012.02 700.095C1003.45 713.441 990.894 725.567 975.062 735.782C959.229 745.996 940.434 754.099 919.748 759.627C899.062 765.155 876.89 768 854.5 768C832.11 768 809.938 765.155 789.252 759.627C768.566 754.099 749.771 745.996 733.938 735.782C718.106 725.567 705.547 713.441 696.979 700.095C688.41 686.749 684 672.445 684 658L854.5 658H1025Z" fill="#232323" stroke="#212121" stroke-width="20" mask="url(#path-13-inside-1_575_25)"/>
<path d="M895.143 754.709C889.271 742.131 888.635 727.736 893.376 714.69C898.117 701.644 907.846 691.015 920.424 685.143C933.001 679.27 947.396 678.634 960.443 683.375C973.489 688.116 984.117 697.846 989.99 710.423L942.567 732.566L895.143 754.709Z" fill="#FF8A80"/>
<path d="M988.413 709.315C989.528 711.786 985.739 716.346 977.881 721.994C970.022 727.641 958.738 733.913 946.51 739.429C934.282 744.945 922.112 749.254 912.678 751.407C903.243 753.561 897.317 753.383 896.202 750.912L942.308 730.114L988.413 709.315Z" fill="#FF8A80"/>
<path d="M979.533 720.203C977.8 718.119 976.731 715.628 976.559 713.278C976.388 710.928 977.13 708.911 978.62 707.672C980.111 706.433 982.229 706.072 984.508 706.67C986.787 707.267 989.041 708.774 990.774 710.858L985.153 715.531L979.533 720.203Z" fill="#FF8A80"/>
<path d="M895.386 754.775C894.862 752.116 894.908 749.457 895.512 747.385C896.117 745.313 897.231 743.996 898.61 743.724C899.988 743.453 901.519 744.249 902.864 745.937C904.209 747.625 905.259 750.068 905.783 752.727L900.584 753.751L895.386 754.775Z" fill="#FF8A80"/>
<path d="M1667 1901L1459 1041L1396.54 1016.98L879.809 974L485.976 996.988L350 1013L286.5 1027L241 1048L39 1901H1667Z" fill="url(#paint3_linear_575_25)"/>
<defs>
<linearGradient id="paint0_linear_575_25" x1="854" y1="1813" x2="854" y2="2030.17" gradientUnits="userSpaceOnUse">
<stop stop-color="#BDBDBD"/>
<stop offset="0.5" stop-color="#757575"/>
<stop offset="1" stop-color="#424242"/>
</linearGradient>
<linearGradient id="paint1_linear_575_25" x1="854" y1="69" x2="854" y2="1050" gradientUnits="userSpaceOnUse">
<stop stop-color="#FFF59D"/>
<stop offset="0.5" stop-color="#FFEB3B"/>
<stop offset="1" stop-color="#FBC02D"/>
</linearGradient>
<linearGradient id="paint2_linear_575_25" x1="854" y1="978" x2="854" y2="1909.31" gradientUnits="userSpaceOnUse">
<stop stop-color="#E0E0E0"/>
<stop offset="0.5" stop-color="#BDBDBD"/>
<stop offset="1" stop-color="#757575"/>
</linearGradient>
<linearGradient id="paint3_linear_575_25" x1="853" y1="1047.96" x2="853" y2="1931" gradientUnits="userSpaceOnUse">
<stop stop-color="#FFF8E1" stop-opacity="0.25"/>
<stop offset="0.402823" stop-color="#FFD54F" stop-opacity="0.125"/>
<stop offset="0.805646" stop-color="#FFB300" stop-opacity="0"/>
</linearGradient>
</defs>
</svg>
