<svg width="1628" height="2102" viewBox="0 0 1628 2102" fill="none" xmlns="http://www.w3.org/2000/svg">
<path d="M815.5 1848.01C920.376 1848.01 1015.22 1862.31 1083.76 1885.37C1118.04 1896.9 1145.6 1910.58 1164.54 1925.64C1183.51 1940.73 1193.5 1956.92 1193.5 1973.51C1193.5 1990.1 1183.51 2006.29 1164.54 2021.38C1145.6 2036.44 1118.04 2050.12 1083.76 2061.65C1015.22 2084.71 920.376 2099.01 815.5 2099.01C710.624 2099.01 615.781 2084.71 547.243 2061.65C512.962 2050.12 485.399 2036.44 466.458 2021.38C447.491 2006.29 437.5 1990.1 437.5 1973.51C437.5 1956.92 447.491 1940.73 466.458 1925.64C485.399 1910.58 512.962 1896.9 547.243 1885.37C615.781 1862.31 710.624 1848.01 815.5 1848.01Z" fill="#333333" stroke="black" stroke-width="5"/>
<path d="M437 1845.55C437 1842.79 439.239 1840.55 442 1840.55H562C564.761 1840.55 567 1842.79 567 1845.55V1963.68H437V1845.55Z" fill="#333333"/>
<path d="M1063 1845.55C1063 1842.79 1065.24 1840.55 1068 1840.55H1188C1190.76 1840.55 1193 1842.79 1193 1845.55V1963.68H1063V1845.55Z" fill="#333333"/>
<path d="M815 1749.01C919.77 1749.01 1014.53 1761.15 1083.01 1780.72C1117.27 1790.51 1144.82 1802.12 1163.74 1814.9C1182.75 1827.74 1192.5 1841.37 1192.5 1855.1C1192.5 1868.82 1182.75 1882.45 1163.74 1895.29C1144.82 1908.07 1117.27 1919.68 1083.01 1929.47C1014.53 1949.04 919.77 1961.18 815 1961.18C710.23 1961.18 615.472 1949.04 546.986 1929.47C512.726 1919.68 485.183 1908.07 466.262 1895.29C447.254 1882.45 437.5 1868.82 437.5 1855.1C437.5 1841.37 447.254 1827.74 466.262 1814.9C485.183 1802.12 512.726 1790.51 546.986 1780.72C615.472 1761.15 710.23 1749.01 815 1749.01Z" fill="url(#paint0_linear_382_144)" stroke="black" stroke-width="5"/>
<path d="M1192.5 1856.07L1193.13 1966.59" stroke="black" stroke-width="4.5"/>
<path d="M438 1850.25L437.5 1964.58" stroke="black" stroke-width="5"/>
<path d="M1426 983.51L1224.65 39.5098L812.015 2.50977L403.855 39.5098L204 983.51H807.046H1426Z" fill="url(#paint1_linear_382_144)" stroke="black" stroke-width="5"/>
<path d="M815 914.01C984.485 914.01 1137.88 922.122 1248.87 935.228C1304.38 941.782 1349.19 949.575 1380.08 958.197C1395.54 962.514 1407.37 966.999 1415.28 971.563C1419.23 973.846 1422.09 976.082 1423.93 978.228C1425.77 980.356 1426.5 982.272 1426.5 984.01C1426.5 985.747 1425.77 987.664 1423.93 989.792C1422.09 991.937 1419.23 994.174 1415.28 996.456C1407.37 1001.02 1395.54 1005.51 1380.08 1009.82C1349.19 1018.44 1304.38 1026.24 1248.87 1032.79C1137.88 1045.9 984.485 1054.01 815 1054.01C645.515 1054.01 492.118 1045.9 381.13 1032.79C325.619 1026.24 280.809 1018.44 249.924 1009.82C234.462 1005.51 222.634 1001.02 214.724 996.456C210.769 994.174 207.911 991.937 206.065 989.792C204.235 987.664 203.5 985.747 203.5 984.01C203.5 982.272 204.235 980.356 206.065 978.228C207.911 976.082 210.769 973.846 214.724 971.563C222.634 966.999 234.462 962.514 249.924 958.197C280.809 949.575 325.619 941.782 381.13 935.228C492.118 922.122 645.515 914.01 815 914.01Z" fill="#F6F2D2" stroke="black" stroke-width="5"/>
<path d="M743 914.01H887C888.381 914.01 889.5 915.129 889.5 916.51V1837.82C889.5 1839.2 888.381 1840.32 887 1840.32H743C741.619 1840.32 740.5 1839.2 740.5 1837.82V916.51C740.5 915.129 741.619 914.01 743 914.01Z" fill="url(#paint2_linear_382_144)" stroke="black" stroke-width="5"/>
<path d="M498 481.51C516.667 447.552 567.2 400.01 620 481.51" stroke="#212121" stroke-width="10"/>
<path d="M1009 481.51C1027.67 447.552 1078.2 400.01 1131 481.51" stroke="#212121" stroke-width="10"/>
<mask id="path-12-inside-1_382_144" fill="white">
<path d="M986 591.51C986 605.955 981.59 620.259 973.021 633.605C964.453 646.951 951.894 659.077 936.062 669.292C920.229 679.506 901.434 687.609 880.748 693.137C860.062 698.665 837.89 701.51 815.5 701.51C793.11 701.51 770.938 698.665 750.252 693.137C729.566 687.608 710.771 679.506 694.938 669.292C679.106 659.077 666.547 646.951 657.979 633.605C649.41 620.259 645 605.955 645 591.51L815.5 591.51H986Z"/>
</mask>
<path d="M986 591.51C986 605.955 981.59 620.259 973.021 633.605C964.453 646.951 951.894 659.077 936.062 669.292C920.229 679.506 901.434 687.609 880.748 693.137C860.062 698.665 837.89 701.51 815.5 701.51C793.11 701.51 770.938 698.665 750.252 693.137C729.566 687.608 710.771 679.506 694.938 669.292C679.106 659.077 666.547 646.951 657.979 633.605C649.41 620.259 645 605.955 645 591.51L815.5 591.51H986Z" fill="#232323" stroke="#212121" stroke-width="20" mask="url(#path-12-inside-1_382_144)"/>
<path d="M856.143 688.219C850.271 675.641 849.635 661.246 854.376 648.2C859.117 635.154 868.846 624.525 881.424 618.652C894.001 612.78 908.396 612.144 921.443 616.885C934.489 621.626 945.117 631.356 950.99 643.933L903.567 666.076L856.143 688.219Z" fill="#FF8A80"/>
<path d="M949.413 642.825C950.528 645.295 946.739 649.856 938.881 655.504C931.022 661.151 919.738 667.423 907.51 672.939C895.282 678.455 883.112 682.764 873.678 684.917C864.243 687.071 858.317 686.893 857.202 684.422L903.308 663.623L949.413 642.825Z" fill="#FF8A80"/>
<path d="M940.533 653.713C938.8 651.629 937.731 649.137 937.559 646.787C937.388 644.437 938.13 642.421 939.62 641.182C941.111 639.943 943.229 639.582 945.508 640.18C947.787 640.777 950.041 642.284 951.774 644.368L946.153 649.04L940.533 653.713Z" fill="#FF8A80"/>
<path d="M856.386 688.285C855.862 685.625 855.908 682.967 856.512 680.895C857.117 678.822 858.231 677.505 859.61 677.234C860.988 676.962 862.519 677.758 863.864 679.447C865.209 681.135 866.259 683.578 866.783 686.237L861.584 687.261L856.386 688.285Z" fill="#FF8A80"/>
<path d="M1628 1834.51L1420 974.51L1357.54 950.487L840.809 907.51L446.976 930.497L311 946.51L247.5 960.51L202 981.51L0 1834.51H1628Z" fill="url(#paint3_linear_382_144)"/>
<defs>
<linearGradient id="paint0_linear_382_144" x1="815" y1="1746.51" x2="815" y2="1963.68" gradientUnits="userSpaceOnUse">
<stop stop-color="#BDBDBD"/>
<stop offset="0.5" stop-color="#757575"/>
<stop offset="1" stop-color="#424242"/>
</linearGradient>
<linearGradient id="paint1_linear_382_144" x1="815" y1="2.50977" x2="815" y2="983.51" gradientUnits="userSpaceOnUse">
<stop stop-color="#FFF59D"/>
<stop offset="0.5" stop-color="#FFEB3B"/>
<stop offset="1" stop-color="#FBC02D"/>
</linearGradient>
<linearGradient id="paint2_linear_382_144" x1="815" y1="911.51" x2="815" y2="1842.82" gradientUnits="userSpaceOnUse">
<stop stop-color="#E0E0E0"/>
<stop offset="0.5" stop-color="#BDBDBD"/>
<stop offset="1" stop-color="#757575"/>
</linearGradient>
<linearGradient id="paint3_linear_382_144" x1="814" y1="981.47" x2="814" y2="1864.51" gradientUnits="userSpaceOnUse">
<stop stop-color="#FFF8E1" stop-opacity="0.25"/>
<stop offset="0.402823" stop-color="#FFD54F" stop-opacity="0.125"/>
<stop offset="0.805646" stop-color="#FFB300" stop-opacity="0"/>
</linearGradient>
</defs>
</svg>
