<svg width="1628" height="2099" viewBox="0 0 1628 2099" fill="none" xmlns="http://www.w3.org/2000/svg">
<path d="M814.5 1845.5C919.376 1845.5 1014.22 1859.8 1082.76 1882.86C1117.04 1894.39 1144.6 1908.07 1163.54 1923.13C1182.51 1938.22 1192.5 1954.41 1192.5 1971C1192.5 1987.59 1182.51 2003.78 1163.54 2018.87C1144.6 2033.93 1117.04 2047.61 1082.76 2059.14C1014.22 2082.2 919.376 2096.5 814.5 2096.5C709.624 2096.5 614.781 2082.2 546.243 2059.14C511.962 2047.61 484.399 2033.93 465.458 2018.87C446.491 2003.78 436.5 1987.59 436.5 1971C436.5 1954.41 446.491 1938.22 465.458 1923.13C484.399 1908.07 511.962 1894.39 546.243 1882.86C614.781 1859.8 709.624 1845.5 814.5 1845.5Z" fill="#161616" stroke="black" stroke-width="5"/>
<path d="M436 1846.04C436 1843.28 438.239 1841.04 441 1841.04H561C563.761 1841.04 566 1843.28 566 1846.04V1964.17H436V1846.04Z" fill="#161616"/>
<path d="M1062 1846.04C1062 1843.28 1064.24 1841.04 1067 1841.04H1187C1189.76 1841.04 1192 1843.28 1192 1846.04V1964.17H1062V1846.04Z" fill="#161616"/>
<path d="M814 1749.5C918.77 1749.5 1013.53 1761.64 1082.01 1781.21C1116.27 1791 1143.82 1802.61 1162.74 1815.39C1181.75 1828.23 1191.5 1841.86 1191.5 1855.59C1191.5 1869.31 1181.75 1882.94 1162.74 1895.78C1143.82 1908.56 1116.27 1920.17 1082.01 1929.96C1013.53 1949.53 918.77 1961.67 814 1961.67C709.23 1961.67 614.472 1949.53 545.986 1929.96C511.726 1920.17 484.183 1908.56 465.262 1895.78C446.254 1882.94 436.5 1869.31 436.5 1855.59C436.5 1841.86 446.254 1828.23 465.262 1815.39C484.183 1802.61 511.726 1791 545.986 1781.21C614.472 1761.64 709.23 1749.5 814 1749.5Z" fill="url(#paint0_linear_576_26)" stroke="black" stroke-width="5"/>
<path d="M1191.5 1856.56L1192.13 1967.08" stroke="black" stroke-width="4.5"/>
<path d="M437 1850.74L436.5 1965.07" stroke="black" stroke-width="5"/>
<path d="M1425 984L1223.65 40L811.015 3L402.855 40L203 984H806.046H1425Z" fill="url(#paint1_linear_576_26)" stroke="black" stroke-width="5"/>
<path d="M814 914.5C983.485 914.5 1136.88 922.613 1247.87 935.718C1303.38 942.272 1348.19 950.065 1379.08 958.688C1394.54 963.004 1406.37 967.489 1414.28 972.054C1418.23 974.336 1421.09 976.572 1422.93 978.718C1424.77 980.846 1425.5 982.762 1425.5 984.5C1425.5 986.238 1424.77 988.154 1422.93 990.282C1421.09 992.428 1418.23 994.664 1414.28 996.946C1406.37 1001.51 1394.54 1006 1379.08 1010.31C1348.19 1018.93 1303.38 1026.73 1247.87 1033.28C1136.88 1046.39 983.485 1054.5 814 1054.5C644.515 1054.5 491.118 1046.39 380.13 1033.28C324.619 1026.73 279.809 1018.93 248.924 1010.31C233.462 1006 221.634 1001.51 213.724 996.946C209.769 994.664 206.911 992.428 205.065 990.282C203.235 988.154 202.5 986.238 202.5 984.5C202.5 982.762 203.235 980.846 205.065 978.718C206.911 976.572 209.769 974.336 213.724 972.054C221.634 967.489 233.462 963.004 248.924 958.688C279.809 950.065 324.619 942.272 380.13 935.718C491.118 922.613 644.515 914.5 814 914.5Z" fill="#3E3E3E" stroke="black" stroke-width="5"/>
<path d="M742 914.5H886C887.381 914.5 888.5 915.619 888.5 917V1838.31C888.5 1839.69 887.381 1840.81 886 1840.81H742C740.619 1840.81 739.5 1839.69 739.5 1838.31V917C739.5 915.619 740.619 914.5 742 914.5Z" fill="url(#paint2_linear_576_26)" stroke="black" stroke-width="5"/>
<path d="M497 437C515.667 470.958 566.2 518.499 619 437" stroke="#A0A0A0" stroke-width="10"/>
<path d="M1008 437C1026.67 470.958 1077.2 518.499 1130 437" stroke="#A0A0A0" stroke-width="10"/>
<defs>
<linearGradient id="paint0_linear_576_26" x1="814" y1="1747" x2="814" y2="1964.17" gradientUnits="userSpaceOnUse">
<stop stop-color="#2A2A2A"/>
<stop offset="0.5" stop-color="#151515"/>
</linearGradient>
<linearGradient id="paint1_linear_576_26" x1="814" y1="3" x2="814" y2="984" gradientUnits="userSpaceOnUse">
<stop stop-color="#4E4E4E"/>
<stop offset="0.5" stop-color="#2C2C2C"/>
<stop offset="1" stop-color="#1A1A1A"/>
</linearGradient>
<linearGradient id="paint2_linear_576_26" x1="814" y1="912" x2="814" y2="1843.31" gradientUnits="userSpaceOnUse">
<stop stop-color="#3C3C3C"/>
<stop offset="0.5" stop-color="#2A2A2A"/>
<stop offset="1" stop-color="#1A1A1A"/>
</linearGradient>
</defs>
</svg>
